<svg width="32" height="32" viewBox="0 0 32 32" fill="none" xmlns="http://www.w3.org/2000/svg">
<path d="M15 7.12134H8C7.46957 7.12134 6.96086 7.33205 6.58579 7.70712C6.21071 8.0822 6 8.5909 6 9.12134V23.1213C6 23.6518 6.21071 24.1605 6.58579 24.5356C6.96086 24.9106 7.46957 25.1213 8 25.1213H22C22.5304 25.1213 23.0391 24.9106 23.4142 24.5356C23.7893 24.1605 24 23.6518 24 23.1213V16.1213" stroke="#413A46" stroke-width="2.5" stroke-linecap="round" stroke-linejoin="round"/>
<path d="M22.5 5.62132C22.8978 5.2235 23.4374 5 24 5C24.5626 5 25.1022 5.2235 25.5 5.62132C25.8978 6.01915 26.1213 6.55871 26.1213 7.12132C26.1213 7.68393 25.8978 8.2235 25.5 8.62132L16 18.1213L12 19.1213L13 15.1213L22.5 5.62132Z" stroke="#413A46" stroke-width="2.5" stroke-linecap="round" stroke-linejoin="round"/>
</svg>
