<svg width="32" height="32" viewBox="0 0 32 32" fill="none" xmlns="http://www.w3.org/2000/svg">
<mask id="path-1-outside-1" maskUnits="userSpaceOnUse" x="3" y="3" width="27" height="26" fill="black">
<rect fill="white" x="3" y="3" width="27" height="26"/>
<path d="M23.1428 27.9999C22.8094 27.9996 22.4836 27.8991 22.2073 27.7113L16.5792 23.9136C16.5515 23.8943 16.5186 23.884 16.4849 23.884C16.4512 23.884 16.4183 23.8943 16.3906 23.9136L10.7625 27.7113C10.4799 27.9013 10.1466 28.0002 9.80681 27.995C9.46702 27.9897 9.13686 27.8805 8.86016 27.6819C8.58347 27.4833 8.37334 27.2046 8.25767 26.8829C8.142 26.5612 8.12627 26.2117 8.21256 25.8808L10.0609 19.3183C10.0697 19.2853 10.0686 19.2504 10.0579 19.218C10.0471 19.1856 10.0272 19.1571 10.0006 19.136L4.67427 14.9205C4.39388 14.7102 4.18589 14.4168 4.07947 14.0815C3.97304 13.7462 3.97352 13.3858 4.08084 13.0507C4.18816 12.7157 4.39693 12.4229 4.67789 12.2134C4.95884 12.0038 5.29789 11.8881 5.64749 11.8823L12.4374 11.6241C12.4708 11.6218 12.5028 11.6098 12.5295 11.5896C12.5563 11.5693 12.5767 11.5418 12.5883 11.5101L14.927 5.10716C15.0449 4.78256 15.259 4.50227 15.5404 4.30424C15.8217 4.1062 16.1567 4 16.5 4C16.8433 4 17.1783 4.1062 17.4596 4.30424C17.741 4.50227 17.9551 4.78256 18.073 5.10716L20.4117 11.5101C20.4233 11.5418 20.4437 11.5693 20.4705 11.5896C20.4972 11.6098 20.5292 11.6218 20.5626 11.6241L27.3525 11.8823C27.7021 11.8881 28.0412 12.0038 28.3221 12.2134C28.6031 12.4229 28.8118 12.7157 28.9192 13.0507C29.0265 13.3858 29.027 13.7462 28.9205 14.0815C28.8141 14.4168 28.6061 14.7102 28.3257 14.9205L22.9994 19.136C22.972 19.1564 22.9514 19.1849 22.9406 19.2175C22.9298 19.2502 22.9293 19.2853 22.9391 19.3183L24.7874 25.8808C24.8523 26.1325 24.8588 26.3959 24.8062 26.6505C24.7537 26.9051 24.6437 27.1442 24.4847 27.3491C24.3256 27.554 24.1219 27.7193 23.8892 27.8322C23.6565 27.945 23.4011 28.0024 23.1428 27.9999ZM16.4887 22.3641C16.8228 22.3744 17.1461 22.4855 17.4166 22.6831L23.0447 26.4808C23.0732 26.5027 23.108 26.5146 23.1438 26.5149C23.1796 26.5152 23.2146 26.5038 23.2435 26.4824C23.2723 26.461 23.2935 26.4309 23.3039 26.3963C23.3144 26.3618 23.3134 26.3249 23.3012 26.2909L21.4528 19.7284C21.3619 19.4065 21.3686 19.0646 21.4721 18.7465C21.5756 18.4285 21.7712 18.1488 22.0338 17.9435L27.3601 13.728C27.3891 13.7075 27.4109 13.6781 27.4221 13.6442C27.4333 13.6103 27.4335 13.5736 27.4225 13.5396C27.4115 13.5056 27.39 13.4761 27.3611 13.4553C27.3322 13.4345 27.2975 13.4236 27.262 13.4242L20.4721 13.166C20.1396 13.1529 19.8185 13.0405 19.5498 12.843C19.2811 12.6455 19.0769 12.3718 18.9632 12.057L16.6245 5.65403C16.6139 5.62003 16.5929 5.59032 16.5644 5.56922C16.5359 5.54812 16.5014 5.53674 16.4661 5.53674C16.4307 5.53674 16.3962 5.54812 16.3677 5.56922C16.3392 5.59032 16.3182 5.62003 16.3076 5.65403L13.9915 12.0494C13.8779 12.3642 13.6736 12.6379 13.4049 12.8354C13.1362 13.0329 12.8151 13.1453 12.4826 13.1584L5.69276 13.4166C5.65725 13.416 5.6225 13.4269 5.59361 13.4477C5.56472 13.4685 5.5432 13.498 5.53223 13.532C5.52126 13.566 5.5214 13.6027 5.53264 13.6366C5.54388 13.6705 5.56562 13.6999 5.59468 13.7204L10.9285 17.9435C11.1903 18.1495 11.3852 18.4292 11.4887 18.747C11.5921 19.0648 11.5994 19.4065 11.5094 19.7284L9.66861 26.2909C9.65763 26.3238 9.65758 26.3594 9.66847 26.3923C9.67936 26.4252 9.7006 26.4536 9.72897 26.4732C9.7563 26.4968 9.79108 26.5097 9.82704 26.5097C9.86301 26.5097 9.89779 26.4968 9.92512 26.4732L15.5532 22.6755C15.8282 22.4918 16.1511 22.394 16.4811 22.3945L16.4887 22.3641Z"/>
</mask>
<path d="M23.1428 27.9999C22.8094 27.9996 22.4836 27.8991 22.2073 27.7113L16.5792 23.9136C16.5515 23.8943 16.5186 23.884 16.4849 23.884C16.4512 23.884 16.4183 23.8943 16.3906 23.9136L10.7625 27.7113C10.4799 27.9013 10.1466 28.0002 9.80681 27.995C9.46702 27.9897 9.13686 27.8805 8.86016 27.6819C8.58347 27.4833 8.37334 27.2046 8.25767 26.8829C8.142 26.5612 8.12627 26.2117 8.21256 25.8808L10.0609 19.3183C10.0697 19.2853 10.0686 19.2504 10.0579 19.218C10.0471 19.1856 10.0272 19.1571 10.0006 19.136L4.67427 14.9205C4.39388 14.7102 4.18589 14.4168 4.07947 14.0815C3.97304 13.7462 3.97352 13.3858 4.08084 13.0507C4.18816 12.7157 4.39693 12.4229 4.67789 12.2134C4.95884 12.0038 5.29789 11.8881 5.64749 11.8823L12.4374 11.6241C12.4708 11.6218 12.5028 11.6098 12.5295 11.5896C12.5563 11.5693 12.5767 11.5418 12.5883 11.5101L14.927 5.10716C15.0449 4.78256 15.259 4.50227 15.5404 4.30424C15.8217 4.1062 16.1567 4 16.5 4C16.8433 4 17.1783 4.1062 17.4596 4.30424C17.741 4.50227 17.9551 4.78256 18.073 5.10716L20.4117 11.5101C20.4233 11.5418 20.4437 11.5693 20.4705 11.5896C20.4972 11.6098 20.5292 11.6218 20.5626 11.6241L27.3525 11.8823C27.7021 11.8881 28.0412 12.0038 28.3221 12.2134C28.6031 12.4229 28.8118 12.7157 28.9192 13.0507C29.0265 13.3858 29.027 13.7462 28.9205 14.0815C28.8141 14.4168 28.6061 14.7102 28.3257 14.9205L22.9994 19.136C22.972 19.1564 22.9514 19.1849 22.9406 19.2175C22.9298 19.2502 22.9293 19.2853 22.9391 19.3183L24.7874 25.8808C24.8523 26.1325 24.8588 26.3959 24.8062 26.6505C24.7537 26.9051 24.6437 27.1442 24.4847 27.3491C24.3256 27.554 24.1219 27.7193 23.8892 27.8322C23.6565 27.945 23.4011 28.0024 23.1428 27.9999ZM16.4887 22.3641C16.8228 22.3744 17.1461 22.4855 17.4166 22.6831L23.0447 26.4808C23.0732 26.5027 23.108 26.5146 23.1438 26.5149C23.1796 26.5152 23.2146 26.5038 23.2435 26.4824C23.2723 26.461 23.2935 26.4309 23.3039 26.3963C23.3144 26.3618 23.3134 26.3249 23.3012 26.2909L21.4528 19.7284C21.3619 19.4065 21.3686 19.0646 21.4721 18.7465C21.5756 18.4285 21.7712 18.1488 22.0338 17.9435L27.3601 13.728C27.3891 13.7075 27.4109 13.6781 27.4221 13.6442C27.4333 13.6103 27.4335 13.5736 27.4225 13.5396C27.4115 13.5056 27.39 13.4761 27.3611 13.4553C27.3322 13.4345 27.2975 13.4236 27.262 13.4242L20.4721 13.166C20.1396 13.1529 19.8185 13.0405 19.5498 12.843C19.2811 12.6455 19.0769 12.3718 18.9632 12.057L16.6245 5.65403C16.6139 5.62003 16.5929 5.59032 16.5644 5.56922C16.5359 5.54812 16.5014 5.53674 16.4661 5.53674C16.4307 5.53674 16.3962 5.54812 16.3677 5.56922C16.3392 5.59032 16.3182 5.62003 16.3076 5.65403L13.9915 12.0494C13.8779 12.3642 13.6736 12.6379 13.4049 12.8354C13.1362 13.0329 12.8151 13.1453 12.4826 13.1584L5.69276 13.4166C5.65725 13.416 5.6225 13.4269 5.59361 13.4477C5.56472 13.4685 5.5432 13.498 5.53223 13.532C5.52126 13.566 5.5214 13.6027 5.53264 13.6366C5.54388 13.6705 5.56562 13.6999 5.59468 13.7204L10.9285 17.9435C11.1903 18.1495 11.3852 18.4292 11.4887 18.747C11.5921 19.0648 11.5994 19.4065 11.5094 19.7284L9.66861 26.2909C9.65763 26.3238 9.65758 26.3594 9.66847 26.3923C9.67936 26.4252 9.7006 26.4536 9.72897 26.4732C9.7563 26.4968 9.79108 26.5097 9.82704 26.5097C9.86301 26.5097 9.89779 26.4968 9.92512 26.4732L15.5532 22.6755C15.8282 22.4918 16.1511 22.394 16.4811 22.3945L16.4887 22.3641Z" fill="#413A46"/>
<path d="M22.2073 27.7113L22.4321 27.3805L22.431 27.3797L22.2073 27.7113ZM16.5792 23.9136L16.3509 24.242L16.3555 24.2451L16.5792 23.9136ZM16.4849 23.884V24.284V23.884ZM16.3906 23.9136L16.6144 24.2452L16.6189 24.242L16.3906 23.9136ZM10.7625 27.7113L10.9857 28.0433L10.9863 28.0429L10.7625 27.7113ZM8.21256 25.8808L7.82747 25.7723L7.8255 25.7799L8.21256 25.8808ZM10.0609 19.3183L10.446 19.4267L10.4476 19.4207L10.0609 19.3183ZM10.0006 19.136L10.249 18.8225L10.2488 18.8223L10.0006 19.136ZM4.67427 14.9205L4.9226 14.6068L4.91427 14.6005L4.67427 14.9205ZM5.64749 11.8823L5.65407 12.2824L5.66269 12.282L5.64749 11.8823ZM12.4374 11.6241L12.4526 12.024L12.4651 12.0231L12.4374 11.6241ZM12.5883 11.5101L12.9639 11.6475L12.964 11.6474L12.5883 11.5101ZM14.927 5.10716L15.3027 5.24439L15.303 5.2437L14.927 5.10716ZM16.5 4V4.4V4ZM18.073 5.10716L17.697 5.2437L17.6973 5.24439L18.073 5.10716ZM20.4117 11.5101L20.036 11.6474L20.0361 11.6475L20.4117 11.5101ZM20.5626 11.6241L20.5349 12.0233L20.5474 12.0238L20.5626 11.6241ZM27.3525 11.8823L27.3373 12.2821L27.3459 12.2823L27.3525 11.8823ZM28.3257 14.9205L28.0856 14.6004L28.0775 14.6069L28.3257 14.9205ZM22.9994 19.136L23.2383 19.457L23.2477 19.4497L22.9994 19.136ZM22.9391 19.3183L23.3241 19.2098L23.3225 19.2043L22.9391 19.3183ZM24.7874 25.8808L25.1749 25.7809L25.1725 25.7723L24.7874 25.8808ZM16.4887 22.3641L16.501 21.9643L16.1783 21.9543L16.1005 22.2677L16.4887 22.3641ZM17.4166 22.6831L17.1807 23.0061L17.1867 23.0105L17.1929 23.0147L17.4166 22.6831ZM23.0447 26.4808L23.2878 26.1632L23.2783 26.1559L23.2684 26.1493L23.0447 26.4808ZM23.3012 26.2909L22.9162 26.3994L22.92 26.413L22.9248 26.4262L23.3012 26.2909ZM21.4528 19.7284L21.8379 19.62L21.8378 19.6197L21.4528 19.7284ZM22.0338 17.9435L22.2802 18.2586L22.282 18.2572L22.0338 17.9435ZM27.3601 13.728L27.1291 13.4014L27.1203 13.4077L27.1118 13.4144L27.3601 13.728ZM27.262 13.4242L27.2468 13.8239L27.2576 13.8243L27.2685 13.8242L27.262 13.4242ZM20.4721 13.166L20.4564 13.5656L20.4569 13.5657L20.4721 13.166ZM18.9632 12.057L19.3395 11.9212L19.3389 11.9198L18.9632 12.057ZM16.6245 5.65403L16.2424 5.77252L16.2454 5.78197L16.2488 5.79127L16.6245 5.65403ZM16.4661 5.53674V5.13674V5.53674ZM16.3076 5.65403L16.6837 5.79023L16.6869 5.78145L16.6897 5.77252L16.3076 5.65403ZM13.9915 12.0494L13.6154 11.9132L13.6153 11.9136L13.9915 12.0494ZM12.4826 13.1584L12.4979 13.5581L12.4983 13.5581L12.4826 13.1584ZM5.69276 13.4166L5.68626 13.8166L5.69711 13.8167L5.70796 13.8163L5.69276 13.4166ZM5.59468 13.7204L5.84298 13.4068L5.83448 13.4001L5.82563 13.3938L5.59468 13.7204ZM10.9285 17.9435L10.6802 18.2571L10.6812 18.2579L10.9285 17.9435ZM11.5094 19.7284L11.8946 19.8365L11.8947 19.836L11.5094 19.7284ZM9.66861 26.2909L10.048 26.4178L10.0511 26.4084L10.0537 26.399L9.66861 26.2909ZM9.72897 26.4732L9.98998 26.1701L9.97403 26.1564L9.95673 26.1444L9.72897 26.4732ZM9.92512 26.4732L9.70138 26.1417L9.68191 26.1548L9.66411 26.1701L9.92512 26.4732ZM15.5532 22.6755L15.331 22.3428L15.3294 22.3439L15.5532 22.6755ZM16.4811 22.3945L16.4806 22.7945L16.7939 22.7949L16.8694 22.4909L16.4811 22.3945ZM23.1432 27.5999C22.89 27.5997 22.6424 27.5234 22.4321 27.3805L21.9824 28.0421C22.3248 28.2748 22.7287 28.3995 23.1424 28.3999L23.1432 27.5999ZM22.431 27.3797L16.803 23.582L16.3555 24.2451L21.9835 28.0429L22.431 27.3797ZM16.8075 23.5851C16.7129 23.5194 16.6004 23.484 16.4849 23.484V24.284C16.4368 24.284 16.39 24.2692 16.3509 24.242L16.8075 23.5851ZM16.4849 23.484C16.3694 23.484 16.2569 23.5194 16.1623 23.5851L16.6189 24.242C16.5798 24.2692 16.533 24.284 16.4849 24.284V23.484ZM16.1669 23.582L10.5388 27.3797L10.9863 28.0429L16.6143 24.2451L16.1669 23.582ZM10.5394 27.3793C10.3243 27.5239 10.071 27.599 9.81298 27.595L9.80063 28.3949C10.2222 28.4014 10.6355 28.2787 10.9857 28.0433L10.5394 27.3793ZM9.81298 27.595C9.55497 27.591 9.30401 27.5081 9.09343 27.357L8.6269 28.0069C8.96971 28.2529 9.37907 28.3884 9.80063 28.3949L9.81298 27.595ZM9.09343 27.357C8.88281 27.2058 8.72244 26.9933 8.63408 26.7476L7.88126 27.0183C8.02423 27.4159 8.28413 27.7608 8.6269 28.0069L9.09343 27.357ZM8.63408 26.7476C8.5457 26.5018 8.53366 26.2346 8.59962 25.9817L7.8255 25.7799C7.71887 26.1888 7.73829 26.6206 7.88126 27.0183L8.63408 26.7476ZM8.59758 25.9892L10.4459 19.4267L9.6759 19.2099L7.82754 25.7723L8.59758 25.9892ZM10.4476 19.4207C10.4762 19.3126 10.4728 19.1985 10.4376 19.0923L9.67814 19.3438C9.66445 19.3024 9.6631 19.258 9.67425 19.2159L10.4476 19.4207ZM10.4376 19.0923C10.4024 18.9861 10.337 18.8922 10.249 18.8225L9.75217 19.4495C9.71744 19.422 9.69185 19.3852 9.67814 19.3438L10.4376 19.0923ZM10.2488 18.8223L4.92251 14.6069L4.42603 15.2342L9.75233 19.4497L10.2488 18.8223ZM4.91427 14.6005C4.70081 14.4404 4.54204 14.2167 4.46072 13.9605L3.69821 14.2025C3.82974 14.617 4.08695 14.98 4.43427 15.2405L4.91427 14.6005ZM4.46072 13.9605C4.3794 13.7043 4.37977 13.4288 4.46178 13.1728L3.69991 12.9287C3.56728 13.3428 3.56669 13.7881 3.69821 14.2025L4.46072 13.9605ZM4.46178 13.1728C4.54377 12.9168 4.70314 12.6935 4.91703 12.534L4.43875 11.8927C4.09073 12.1523 3.83255 12.5147 3.69991 12.9287L4.46178 13.1728ZM4.91703 12.534C5.13088 12.3745 5.3886 12.2866 5.65407 12.2823L5.64091 11.4824C5.20718 11.4895 4.78681 11.6331 4.43875 11.8927L4.91703 12.534ZM5.66269 12.282L12.4526 12.0238L12.4222 11.2244L5.63229 11.4826L5.66269 12.282ZM12.4651 12.0231C12.576 12.0154 12.6821 11.9756 12.7706 11.9088L12.2885 11.2703C12.3234 11.2439 12.3655 11.2281 12.4096 11.225L12.4651 12.0231ZM12.7706 11.9088C12.859 11.842 12.926 11.7512 12.9639 11.6475L12.2126 11.3728C12.2274 11.3324 12.2536 11.2967 12.2885 11.2703L12.7706 11.9088ZM12.964 11.6474L15.3027 5.24439L14.5513 4.96992L12.2125 11.3729L12.964 11.6474ZM15.303 5.2437C15.393 4.99572 15.5564 4.78207 15.7706 4.63133L15.3101 3.97714C14.9616 4.22247 14.6967 4.56939 14.551 4.97061L15.303 5.2437ZM15.7706 4.63133C15.9847 4.48063 16.2393 4.4 16.5 4.4V3.6C16.0741 3.6 15.6587 3.73178 15.3101 3.97714L15.7706 4.63133ZM16.5 4.4C16.7607 4.4 17.0153 4.48063 17.2294 4.63133L17.6899 3.97714C17.3413 3.73178 16.9259 3.6 16.5 3.6V4.4ZM17.2294 4.63133C17.4436 4.78206 17.607 4.99572 17.697 5.2437L18.449 4.97061C18.3033 4.56939 18.0384 4.22247 17.6899 3.97714L17.2294 4.63133ZM17.6973 5.24439L20.036 11.6474L20.7875 11.3729L18.4487 4.96992L17.6973 5.24439ZM20.0361 11.6475C20.074 11.7512 20.141 11.842 20.2294 11.9088L20.7115 11.2703C20.7464 11.2967 20.7726 11.3324 20.7874 11.3728L20.0361 11.6475ZM20.2294 11.9088C20.3179 11.9756 20.424 12.0154 20.5349 12.0231L20.5904 11.225C20.6345 11.2281 20.6766 11.2439 20.7115 11.2703L20.2294 11.9088ZM20.5474 12.0238L27.3373 12.282L27.3677 11.4826L20.5778 11.2244L20.5474 12.0238ZM27.3459 12.2823C27.6114 12.2866 27.8691 12.3745 28.083 12.534L28.5612 11.8927C28.2132 11.6331 27.7928 11.4895 27.3591 11.4824L27.3459 12.2823ZM28.083 12.534C28.2969 12.6935 28.4562 12.9168 28.5382 13.1728L29.3001 12.9287C29.1675 12.5146 28.9093 12.1523 28.5612 11.8927L28.083 12.534ZM28.5382 13.1728C28.6202 13.4288 28.6206 13.7043 28.5393 13.9605L29.3018 14.2025C29.4333 13.7881 29.4327 13.3428 29.3001 12.9287L28.5382 13.1728ZM28.5393 13.9605C28.458 14.2167 28.2992 14.4404 28.0857 14.6005L28.5657 15.2405C28.9131 14.98 29.1703 14.6169 29.3018 14.2025L28.5393 13.9605ZM28.0775 14.6069L22.7512 18.8223L23.2477 19.4497L28.574 15.2342L28.0775 14.6069ZM22.7606 18.8151C22.667 18.8848 22.5974 18.9815 22.5609 19.0918L23.3204 19.3433C23.3054 19.3883 23.2769 19.4281 23.2382 19.4569L22.7606 18.8151ZM22.5609 19.0918C22.5244 19.2021 22.5226 19.3209 22.5557 19.4323L23.3225 19.2043C23.336 19.2498 23.3353 19.2982 23.3204 19.3433L22.5609 19.0918ZM22.5541 19.4267L24.4024 25.9892L25.1725 25.7723L23.3241 19.2099L22.5541 19.4267ZM24.4001 25.9806C24.4497 26.1732 24.4547 26.3748 24.4145 26.5697L25.198 26.7313C25.2628 26.4169 25.2549 26.0918 25.1748 25.781L24.4001 25.9806ZM24.4145 26.5697C24.3743 26.7646 24.2901 26.9473 24.1687 27.1038L24.8007 27.5943C24.9973 27.341 25.1332 27.0457 25.198 26.7313L24.4145 26.5697ZM24.1687 27.1038C24.0472 27.2603 23.8918 27.3863 23.7146 27.4723L24.0637 28.1921C24.3519 28.0523 24.604 27.8477 24.8007 27.5943L24.1687 27.1038ZM23.7146 27.4723C23.5374 27.5582 23.3431 27.6018 23.1467 27.5999L23.1389 28.3999C23.459 28.403 23.7755 28.3319 24.0637 28.1921L23.7146 27.4723ZM16.4764 22.7639C16.7297 22.7717 16.9751 22.856 17.1807 23.0061L17.6525 22.3601C17.317 22.1151 16.9158 21.977 16.501 21.9643L16.4764 22.7639ZM17.1929 23.0147L22.821 26.8124L23.2684 26.1493L17.6404 22.3515L17.1929 23.0147ZM22.8016 26.7985C22.8989 26.8729 23.0178 26.9139 23.1406 26.9149L23.147 26.1149C23.1982 26.1153 23.2476 26.1324 23.2878 26.1632L22.8016 26.7985ZM23.1406 26.9149C23.2635 26.9159 23.383 26.8768 23.4815 26.8039L23.0055 26.1609C23.0462 26.1308 23.0958 26.1145 23.147 26.1149L23.1406 26.9149ZM23.4815 26.8039C23.5798 26.7311 23.6517 26.6285 23.6869 26.5119L22.921 26.2808C22.9354 26.2332 22.9648 26.191 23.0055 26.1609L23.4815 26.8039ZM23.6869 26.5119C23.7221 26.3952 23.7188 26.2703 23.6776 26.1557L22.9248 26.4262C22.9079 26.3794 22.9066 26.3284 22.921 26.2808L23.6869 26.5119ZM23.6862 26.1825L21.8379 19.62L21.0678 19.8369L22.9162 26.3994L23.6862 26.1825ZM21.8378 19.6197C21.7684 19.374 21.7735 19.113 21.8525 18.8703L21.0918 18.6227C20.9637 19.0162 20.9554 19.439 21.0679 19.8372L21.8378 19.6197ZM21.8525 18.8703C21.9315 18.6276 22.0805 18.4147 22.2802 18.2586L21.7874 17.6284C21.4619 17.8829 21.2198 18.2293 21.0918 18.6227L21.8525 18.8703ZM22.282 18.2572L27.6083 14.0417L27.1118 13.4144L21.7855 17.6299L22.282 18.2572ZM27.591 14.0546C27.6901 13.9846 27.7638 13.8847 27.8018 13.77L27.0424 13.5183C27.0579 13.4715 27.0881 13.4304 27.1291 13.4014L27.591 14.0546ZM27.8018 13.77C27.8398 13.6554 27.8403 13.5317 27.8032 13.4168L27.0418 13.6625C27.0267 13.6156 27.0269 13.5651 27.0424 13.5183L27.8018 13.77ZM27.8032 13.4168C27.7661 13.3018 27.6932 13.2014 27.5946 13.1305L27.1276 13.7801C27.0869 13.7508 27.057 13.7095 27.0418 13.6625L27.8032 13.4168ZM27.5946 13.1305C27.4961 13.0597 27.3772 13.0223 27.2555 13.0243L27.2685 13.8242C27.2178 13.825 27.1684 13.8094 27.1276 13.7801L27.5946 13.1305ZM27.2772 13.0245L20.4873 12.7662L20.4569 13.5657L27.2468 13.8239L27.2772 13.0245ZM20.4878 12.7663C20.2353 12.7564 19.9912 12.671 19.7867 12.5206L19.3129 13.1653C19.6459 13.41 20.0439 13.5495 20.4564 13.5656L20.4878 12.7663ZM19.7867 12.5206C19.5821 12.3703 19.4263 12.1617 19.3395 11.9212L18.587 12.1928C18.7275 12.582 18.98 12.9206 19.3129 13.1653L19.7867 12.5206ZM19.3389 11.9198L17.0002 5.5168L16.2488 5.79127L18.5875 12.1943L19.3389 11.9198ZM17.0065 5.53554C16.9709 5.42061 16.8995 5.31966 16.8024 5.24773L16.3264 5.8907C16.2862 5.86097 16.257 5.81945 16.2424 5.77252L17.0065 5.53554ZM16.8024 5.24773C16.7052 5.17577 16.5873 5.13674 16.4661 5.13674V5.93674C16.4155 5.93674 16.3666 5.92046 16.3264 5.8907L16.8024 5.24773ZM16.4661 5.13674C16.3448 5.13674 16.2269 5.17577 16.1297 5.24773L16.6057 5.8907C16.5655 5.92046 16.5166 5.93674 16.4661 5.93674V5.13674ZM16.1297 5.24773C16.0326 5.31966 15.9612 5.4206 15.9256 5.53554L16.6897 5.77252C16.6751 5.81946 16.6459 5.86097 16.6057 5.8907L16.1297 5.24773ZM15.9315 5.51783L13.6154 11.9132L14.3676 12.1856L16.6837 5.79023L15.9315 5.51783ZM13.6153 11.9136C13.5285 12.1541 13.3726 12.3627 13.168 12.5131L13.6418 13.1577C13.9747 12.913 14.2273 12.5744 14.3677 12.1852L13.6153 11.9136ZM13.168 12.5131C12.9635 12.6634 12.7194 12.7488 12.467 12.7587L12.4983 13.5581C12.9108 13.5419 13.3089 13.4024 13.6418 13.1577L13.168 12.5131ZM12.4674 12.7586L5.67755 13.0169L5.70796 13.8163L12.4978 13.5581L12.4674 12.7586ZM5.69925 13.0167C5.57753 13.0147 5.45865 13.0521 5.36009 13.123L5.82714 13.7725C5.78636 13.8018 5.73698 13.8174 5.68626 13.8166L5.69925 13.0167ZM5.36009 13.123C5.26157 13.1938 5.18867 13.2942 5.15157 13.4092L5.91289 13.6549C5.89773 13.7019 5.86787 13.7432 5.82714 13.7725L5.36009 13.123ZM5.15157 13.4092C5.11448 13.5241 5.11496 13.6478 5.15296 13.7624L5.91232 13.5107C5.92783 13.5575 5.92803 13.608 5.91289 13.6549L5.15157 13.4092ZM5.15296 13.7624C5.19096 13.8771 5.26465 13.977 5.36373 14.047L5.82563 13.3938C5.8666 13.4228 5.8968 13.4639 5.91232 13.5107L5.15296 13.7624ZM5.34638 14.034L10.6802 18.2571L11.1768 17.6299L5.84298 13.4068L5.34638 14.034ZM10.6812 18.2579C10.8804 18.4147 11.0293 18.628 11.1083 18.8708L11.8691 18.6232C11.7412 18.2304 11.5001 17.8843 11.1759 17.6292L10.6812 18.2579ZM11.1083 18.8708C11.1874 19.1137 11.1929 19.3748 11.1242 19.6209L11.8947 19.836C12.0058 19.4382 11.9969 19.016 11.8691 18.6232L11.1083 18.8708ZM11.1243 19.6204L9.28348 26.1829L10.0537 26.399L11.8946 19.8365L11.1243 19.6204ZM9.28925 26.1641C9.25087 26.2789 9.25069 26.4031 9.28874 26.518L10.0482 26.2665C10.0645 26.3157 10.0644 26.3687 10.048 26.4178L9.28925 26.1641ZM9.28874 26.518C9.32679 26.6329 9.40119 26.7328 9.50121 26.8021L9.95673 26.1444C10 26.1744 10.0319 26.2174 10.0482 26.2665L9.28874 26.518ZM9.46796 26.7763C9.56765 26.8622 9.69497 26.9097 9.82704 26.9097V26.1097C9.88719 26.1097 9.94495 26.1313 9.98998 26.1701L9.46796 26.7763ZM9.82704 26.9097C9.95912 26.9097 10.0864 26.8622 10.1861 26.7763L9.66411 26.1701C9.70914 26.1313 9.7669 26.1097 9.82704 26.1097V26.9097ZM10.1489 26.8048L15.7769 23.0071L15.3294 22.3439L9.70138 26.1417L10.1489 26.8048ZM15.7753 23.0081C15.9846 22.8684 16.23 22.7941 16.4806 22.7945L16.4817 21.9945C16.0722 21.9939 15.6719 22.1152 15.331 22.3429L15.7753 23.0081ZM16.8694 22.4909L16.8769 22.4605L16.1005 22.2677L16.0929 22.2981L16.8694 22.4909Z" fill="#413A46" mask="url(#path-1-outside-1)"/>
</svg>
