<svg width="32" height="32" viewBox="0 0 32 32" fill="none" xmlns="http://www.w3.org/2000/svg">
<path fill-rule="evenodd" clip-rule="evenodd" d="M12.8 6.40002C11.1026 6.40002 9.4747 7.0743 8.27447 8.27453C7.07424 9.47477 6.39995 11.1026 6.39995 12.8C6.39995 14.4974 7.07424 16.1253 8.27447 17.3255C9.4747 18.5257 11.1026 19.2 12.8 19.2C14.4973 19.2 16.1252 18.5257 17.3254 17.3255C18.5257 16.1253 19.2 14.4974 19.2 12.8C19.2 11.1026 18.5257 9.47477 17.3254 8.27453C16.1252 7.0743 14.4973 6.40002 12.8 6.40002ZM3.19995 12.8C3.19976 11.2891 3.55618 9.79956 4.24023 8.4524C4.92427 7.10525 5.91663 5.93857 7.13659 5.04726C8.35654 4.15594 9.76965 3.56516 11.261 3.32295C12.7523 3.08074 14.2798 3.19396 15.7191 3.65338C17.1584 4.1128 18.469 4.90546 19.5442 5.96689C20.6194 7.02832 21.429 8.32855 21.9069 9.76183C22.3849 11.1951 22.5178 12.721 22.2949 14.2153C22.0719 15.7096 21.4994 17.1303 20.624 18.3616L28.3312 26.0688C28.6226 26.3706 28.7839 26.7747 28.7802 27.1943C28.7766 27.6138 28.6083 28.0151 28.3117 28.3117C28.015 28.6084 27.6137 28.7767 27.1942 28.7803C26.7747 28.7839 26.3705 28.6227 26.0688 28.3312L18.3632 20.6256C16.9269 21.6469 15.2373 22.2531 13.4794 22.3778C11.7216 22.5025 9.96327 22.141 8.39723 21.3328C6.8312 20.5246 5.51785 19.3009 4.60111 17.7958C3.68437 16.2907 3.19961 14.5623 3.19995 12.8Z" fill="#413A46"/>
</svg>
