<svg width="32" height="32" viewBox="0 0 32 32" fill="none" xmlns="http://www.w3.org/2000/svg">
<g clip-path="url(#clip0)">
<path d="M16 20C18.2091 20 20 18.2091 20 16C20 13.7909 18.2091 12 16 12C13.7909 12 12 13.7909 12 16C12 18.2091 13.7909 20 16 20Z" stroke="#413A46" stroke-width="3" stroke-linecap="round" stroke-linejoin="round"/>
<path d="M25.8667 20C25.6892 20.4022 25.6363 20.8483 25.7147 21.2808C25.7931 21.7133 25.9993 22.1124 26.3067 22.4267L26.3867 22.5067C26.6346 22.7543 26.8313 23.0484 26.9655 23.3722C27.0997 23.6959 27.1688 24.0429 27.1688 24.3933C27.1688 24.7438 27.0997 25.0908 26.9655 25.4145C26.8313 25.7382 26.6346 26.0323 26.3867 26.28C26.139 26.5279 25.8449 26.7246 25.5212 26.8588C25.1975 26.993 24.8505 27.0621 24.5 27.0621C24.1496 27.0621 23.8026 26.993 23.4789 26.8588C23.1551 26.7246 22.861 26.5279 22.6134 26.28L22.5334 26.2C22.2191 25.8926 21.82 25.6864 21.3875 25.608C20.955 25.5296 20.5089 25.5825 20.1067 25.76C19.7123 25.929 19.376 26.2097 19.1391 26.5674C18.9022 26.9251 18.7751 27.3443 18.7734 27.7733V28C18.7734 28.7073 18.4924 29.3855 17.9923 29.8856C17.4922 30.3857 16.814 30.6667 16.1067 30.6667C15.3995 30.6667 14.7212 30.3857 14.2211 29.8856C13.721 29.3855 13.44 28.7073 13.44 28V27.88C13.4297 27.4387 13.2869 27.0107 13.0301 26.6516C12.7732 26.2926 12.4144 26.0191 12 25.8667C11.5979 25.6892 11.1518 25.6362 10.7193 25.7147C10.2867 25.7931 9.88761 25.9993 9.57337 26.3067L9.49337 26.3867C9.24571 26.6346 8.95161 26.8313 8.62788 26.9655C8.30415 27.0997 7.95715 27.1688 7.60671 27.1688C7.25627 27.1688 6.90926 27.0997 6.58553 26.9655C6.2618 26.8313 5.9677 26.6346 5.72004 26.3867C5.4721 26.139 5.27541 25.8449 5.14121 25.5212C5.00702 25.1975 4.93794 24.8505 4.93794 24.5C4.93794 24.1496 5.00702 23.8026 5.14121 23.4788C5.27541 23.1551 5.4721 22.861 5.72004 22.6133L5.80004 22.5333C6.10742 22.2191 6.31362 21.82 6.39205 21.3875C6.47047 20.9549 6.41753 20.5088 6.24004 20.1067C6.07102 19.7123 5.79038 19.376 5.43266 19.1391C5.07494 18.9022 4.65576 18.7751 4.22671 18.7733H4.00004C3.2928 18.7733 2.61452 18.4924 2.11442 17.9923C1.61433 17.4922 1.33337 16.8139 1.33337 16.1067C1.33337 15.3994 1.61433 14.7212 2.11442 14.2211C2.61452 13.721 3.2928 13.44 4.00004 13.44H4.12004C4.56137 13.4297 4.98938 13.2868 5.34844 13.03C5.7075 12.7732 5.98099 12.4143 6.13337 12C6.31086 11.5979 6.3638 11.1518 6.28538 10.7192C6.20695 10.2867 6.00076 9.88758 5.69337 9.57334L5.61337 9.49334C5.36544 9.24568 5.16875 8.95158 5.03455 8.62785C4.90035 8.30412 4.83128 7.95712 4.83128 7.60668C4.83128 7.25624 4.90035 6.90923 5.03455 6.5855C5.16875 6.26177 5.36544 5.96767 5.61337 5.72001C5.86104 5.47207 6.15514 5.27538 6.47887 5.14118C6.80259 5.00699 7.1496 4.93791 7.50004 4.93791C7.85048 4.93791 8.19749 5.00699 8.52121 5.14118C8.84494 5.27538 9.13905 5.47207 9.38671 5.72001L9.46671 5.80001C9.78095 6.10739 10.1801 6.31359 10.6126 6.39202C11.0451 6.47044 11.4912 6.4175 11.8934 6.24001H12C12.3944 6.07099 12.7307 5.79035 12.9676 5.43263C13.2045 5.07491 13.3317 4.65573 13.3334 4.22668V4.00001C13.3334 3.29277 13.6143 2.61449 14.1144 2.11439C14.6145 1.6143 15.2928 1.33334 16 1.33334C16.7073 1.33334 17.3856 1.6143 17.8857 2.11439C18.3858 2.61449 18.6667 3.29277 18.6667 4.00001V4.12001C18.6684 4.54906 18.7955 4.96824 19.0324 5.32596C19.2694 5.68368 19.6057 5.96433 20 6.13334C20.4022 6.31083 20.8483 6.36377 21.2808 6.28535C21.7134 6.20692 22.1125 6.00073 22.4267 5.69334L22.5067 5.61334C22.7544 5.36541 23.0485 5.16872 23.3722 5.03452C23.6959 4.90032 24.0429 4.83125 24.3934 4.83125C24.7438 4.83125 25.0908 4.90032 25.4145 5.03452C25.7383 5.16872 26.0324 5.36541 26.28 5.61334C26.528 5.86101 26.7247 6.15511 26.8589 6.47884C26.9931 6.80256 27.0621 7.14957 27.0621 7.50001C27.0621 7.85045 26.9931 8.19746 26.8589 8.52118C26.7247 8.84491 26.528 9.13902 26.28 9.38668L26.2 9.46668C25.8927 9.78092 25.6865 10.18 25.608 10.6126C25.5296 11.0451 25.5826 11.4912 25.76 11.8933V12C25.9291 12.3944 26.2097 12.7307 26.5674 12.9676C26.9251 13.2045 27.3443 13.3316 27.7734 13.3333H28C28.7073 13.3333 29.3856 13.6143 29.8857 14.1144C30.3858 14.6145 30.6667 15.2928 30.6667 16C30.6667 16.7073 30.3858 17.3855 29.8857 17.8856C29.3856 18.3857 28.7073 18.6667 28 18.6667H27.88C27.451 18.6684 27.0318 18.7955 26.6741 19.0324C26.3164 19.2693 26.0357 19.6057 25.8667 20V20Z" stroke="#413A46" stroke-width="3" stroke-linecap="round" stroke-linejoin="round"/>
</g>
<defs>
<clipPath id="clip0">
<rect width="32" height="32" fill="white"/>
</clipPath>
</defs>
</svg>
